<svg width="594" height="596" viewBox="0 0 594 596" fill="none" xmlns="http://www.w3.org/2000/svg">
<path d="M0 1.99998C54.8 -0.700024 109.5 -3.40001 153.7 22.2C198 47.9 231.7 101.9 261.5 143.1C291.3 184.2 317.3 212.4 361.3 234.7C405.4 256.9 467.4 273.1 496.2 309.5C525 345.9 520.5 402.5 531.3 453.6C542 504.8 568 550.4 594 596H0V1.99998Z" fill="#002241"/>
<path d="M0 150.5C41.1 148.5 82.1 146.4 115.3 165.7C148.5 184.9 173.7 225.4 196.1 256.3C218.5 287.2 238 308.3 271 325C304 341.7 350.6 353.8 372.2 381.1C393.8 408.4 390.4 450.9 398.4 489.2C406.5 527.6 426 561.8 445.5 596H0V150.5Z" fill="#003F8A"/>
<path d="M0 299C27.4 297.6 54.8 296.3 76.9 309.1C99 322 115.8 349 130.7 369.5C145.7 390.1 158.7 404.2 180.7 415.3C202.7 426.4 233.7 434.5 248.1 452.7C262.5 471 260.3 499.3 265.6 524.8C271 550.4 284 573.2 297 596H0V299Z" fill="#4056D1"/>
<path d="M0 447.5C13.7 446.8 27.4 446.1 38.4 452.6C49.5 459 57.9 472.5 65.4 482.8C72.8 493.1 79.3 500.1 90.3 505.7C101.3 511.2 116.9 515.3 124.1 524.4C131.3 533.5 130.1 547.6 132.8 560.4C135.5 573.2 142 584.6 148.5 596H0V447.5Z" fill="#715DF2"/>
</svg>
